# xmcd CD database file
#
# Track frame offsets:
#	150
#	29160
#	52314
#	100523
#	127990
#	164153
#	191849
#	213355
#	244777
#	260513
#	290899
#
# Disc length: 4109 seconds
#
# Revision: 0
# Processed by: cddbd v1.5.2PL0 Copyright (c) Steve Scherf et al.
# Submitted via: CDex 1.51
#
DISCID=b2100b0b
DTITLE=Todd Sickafoose - Tiny Resistors
DYEAR=2008
DGENRE=Jazz
TTITLE0=Future Flora
TTITLE1=Invisible Ink, Revealed
TTITLE2=Bye Bye Bees
TTITLE3=Pianos of the 9th Ward
TTITLE4=Everyone is Going
TTITLE5=Cloud of Dust
TTITLE6=Warm Stone
TTITLE7=Paper Trombones
TTITLE8=Whistle
TTITLE9=Tiny Resistors
TTITLE10=Barnacle
EXTD=YEAR: 2008
EXTT0=
EXTT1=
EXTT2=
EXTT3=
EXTT4=
EXTT5=
EXTT6=
EXTT7=
EXTT8=
EXTT9=
EXTT10=
PLAYORDER=
